<svg width="54" height="54" viewBox="0 0 54 54" fill="none" xmlns="http://www.w3.org/2000/svg">
<path d="M54 42.428C54 44.191 52.5709 45.6202 50.808 45.6202H3.19201C1.4291 45.6202 0 44.1909 0 42.428V11.5715C0 9.8085 1.4291 8.37939 3.19201 8.37939H50.808C52.571 8.37939 54 9.8086 54 11.5715V42.428Z" fill="#92DBEF"/>
<path opacity="0.15" d="M2.26937 42.428V11.5715C2.26937 9.8085 3.69868 8.37939 5.46159 8.37939H3.19191C1.4291 8.37939 0 9.8085 0 11.5715V42.428C0 44.191 1.4291 45.6202 3.19201 45.6202H5.4617C3.69879 45.6202 2.26937 44.1909 2.26937 42.428Z" fill="#202121"/>
<path d="M35.0615 15.6593C33.8782 14.3067 31.6805 13.6309 28.6379 13.6309H20.1853C19.6779 13.6309 19.1712 14.1384 19.002 14.6447L15.621 36.7897C15.621 37.2975 15.9592 37.6349 16.2967 37.6349H21.5371L22.8896 29.352V29.6902C23.059 29.1825 23.5655 28.6761 24.0731 28.6761H26.6091C31.5112 28.6761 35.2294 26.6476 36.413 21.0684V20.5613C36.244 20.5613 36.244 20.5613 36.413 20.5613C36.5823 18.3643 36.2441 17.0117 35.0615 15.6593Z" fill="#263B80"/>
<path d="M36.4131 21.068V20.5609C36.4143 20.5442 36.415 20.5286 36.4161 20.5119C36.1155 20.303 35.8339 20.1572 35.6186 20.0627C34.5922 19.6386 33.5426 19.5587 33.058 19.5465L33.0555 19.5444H30.5903C30.5903 19.5444 30.5924 19.5457 30.5934 19.5464H25.4223C24.5431 19.5784 24.3007 20.2872 24.2373 20.5956L22.8897 29.3518V29.5595V29.6898C23.0591 29.1822 23.5656 28.6757 24.0732 28.6757H26.6092C31.5113 28.6757 35.2295 26.6471 36.4131 21.068Z" fill="#232C65"/>
<path d="M38.0738 22.6561C37.6918 21.6022 37.0158 20.9287 36.4161 20.5117C36.415 20.5284 36.4142 20.544 36.4132 20.5608V21.0679C35.2296 26.6469 31.5114 28.6755 26.6093 28.6755H24.0734C23.5657 28.6755 23.0592 29.1819 22.8898 29.6896V29.5593C22.8705 29.6025 22.8527 29.6461 22.8381 29.6896L21.8831 35.5164L21.5372 37.6345H21.536L21.148 40.0014C21.148 40.3393 21.3172 40.6767 21.8238 40.6767H26.0376C26.8854 40.6767 27.1517 40.0172 27.2335 39.6619L27.2693 39.4412V39.441L28.0784 34.4224C28.0784 34.4224 28.1839 33.2392 29.3382 33.2392H29.7695C33.9956 33.2392 37.3765 31.549 38.2217 26.4779C38.4566 25.0641 38.445 23.7338 38.0738 22.6561Z" fill="#139AD6"/>
</svg>
