<svg width="54" height="54" viewBox="0 0 54 54" fill="none" xmlns="http://www.w3.org/2000/svg">
<path d="M54 42.428C54 44.191 52.5709 45.6202 50.808 45.6202H3.19201C1.4291 45.6202 0 44.1908 0 42.428V11.5715C0 9.8085 1.4291 8.37939 3.19201 8.37939H50.8079C52.5709 8.37939 53.9999 9.8086 53.9999 11.5715L54 42.428Z" fill="#E7E8E3"/>
<path d="M54 15.623H0V23.2178H54V15.623Z" fill="#34495E"/>
<path d="M54 23.2197H0V27.9189H54V23.2197Z" fill="white"/>
<path opacity="0.15" d="M2.26937 42.428V11.5715C2.26937 9.8085 3.69868 8.37939 5.46159 8.37939H3.19191C1.4291 8.37939 0 9.80871 0 11.5715V42.428C0 44.191 1.4291 45.6202 3.19201 45.6202H5.4617C3.69879 45.6202 2.26937 44.1908 2.26937 42.428Z" fill="#202121"/>
<path d="M39.5462 36.7232C39.5462 35.1393 40.276 33.726 41.4174 32.8005C40.5497 32.0972 39.4446 31.6753 38.2407 31.6753C35.4529 31.6753 33.1929 33.9353 33.1929 36.7232C33.1929 39.5112 35.4529 41.7712 38.2407 41.7712C39.4446 41.7712 40.5498 41.3494 41.4174 40.6459C40.2759 39.7205 39.5462 38.3072 39.5462 36.7232Z" fill="#EA001B"/>
<path d="M44.594 31.6753C43.39 31.6753 42.2848 32.0971 41.4174 32.8005C42.559 33.726 43.2885 35.1393 43.2885 36.7232C43.2885 38.3072 42.5588 39.7205 41.4174 40.6459C42.2851 41.3493 43.3902 41.7712 44.594 41.7712C47.382 41.7712 49.642 39.5112 49.642 36.7232C49.642 33.9353 47.382 31.6753 44.594 31.6753Z" fill="#F79F1A"/>
<path d="M43.2884 36.7235C43.2884 35.1396 42.5588 33.7263 41.4173 32.8008C40.2759 33.7263 39.5461 35.1396 39.5461 36.7235C39.5461 38.3074 40.2759 39.7207 41.4173 40.6462C42.5589 39.7207 43.2884 38.3074 43.2884 36.7235Z" fill="#FF5F01"/>
<path d="M16.8815 34.0373H5.84673C5.36041 34.0373 4.96628 33.6432 4.96628 33.1568C4.96628 32.6705 5.36031 32.2764 5.84673 32.2764H16.8815C17.3678 32.2764 17.762 32.6704 17.762 33.1568C17.762 33.6432 17.3678 34.0373 16.8815 34.0373Z" fill="white"/>
<path d="M16.8815 37.6965H5.84673C5.36041 37.6965 4.96628 37.3024 4.96628 36.816C4.96628 36.3296 5.36031 35.9355 5.84673 35.9355H16.8815C17.3678 35.9355 17.762 36.3296 17.762 36.816C17.762 37.3024 17.3678 37.6965 16.8815 37.6965Z" fill="white"/>
<path d="M16.8815 41.3566H5.84673C5.36041 41.3566 4.96628 40.9626 4.96628 40.4762C4.96628 39.9898 5.36031 39.5957 5.84673 39.5957H16.8815C17.3678 39.5957 17.762 39.9897 17.762 40.4762C17.762 40.9624 17.3678 41.3566 16.8815 41.3566Z" fill="white"/>
</svg>
